<svg xmlns="http://www.w3.org/2000/svg" version="1.1" xmlns:xlink="http://www.w3.org/1999/xlink" xmlns:svgjs="http://svgjs.com/svgjs" width="1440" height="560" preserveAspectRatio="none" viewBox="0 0 1440 560"><g mask="url(&quot;#SvgjsMask1015&quot;)" fill="none"><rect width="1440" height="560" x="0" y="0" fill="rgba(0, 0, 0, 1)"></rect><path d="M 0,51 C 96,55.4 288,72.8 480,73 C 672,73.2 768,52.4 960,52 C 1152,51.6 1344,67.2 1440,71L1440 560L0 560z" fill="rgba(0, 0, 0, 1)"></path><path d="M 0,244 C 96,233 288,192.8 480,189 C 672,185.2 768,228.8 960,225 C 1152,221.2 1344,181 1440,170L1440 560L0 560z" fill="rgba(0, 0, 0, 1)"></path><path d="M 0,371 C 57.6,364.2 172.8,336.2 288,337 C 403.2,337.8 460.8,378.8 576,375 C 691.2,371.2 748.8,310.4 864,318 C 979.2,325.6 1036.8,407 1152,413 C 1267.2,419 1382.4,361 1440,348L1440 560L0 560z" fill="rgba(0, 0, 0, 1)"></path><path d="M 0,505 C 96,498.4 288,472.2 480,472 C 672,471.8 768,503 960,504 C 1152,505 1344,482.4 1440,477L1440 560L0 560z" fill="rgba(240, 211, 247, 1)"></path></g><defs><mask id="SvgjsMask1015"><rect width="1440" height="560" fill="#ffffff"></rect></mask></defs></svg>